<svg width="48" height="48" viewBox="0 0 48 48" fill="none" xmlns="http://www.w3.org/2000/svg">
<g clip-path="url(#clip0_36_54)">
<path d="M33.546 0.024021C33.444 -0.089979 29.769 0.0690211 26.571 3.54002C23.373 7.00802 23.865 10.986 23.937 11.088C24.009 11.19 28.497 11.349 31.362 7.31402C34.227 3.27902 33.648 0.141021 33.546 0.024021ZM43.488 35.223C43.344 34.935 36.513 31.521 37.149 24.957C37.785 18.39 42.174 16.59 42.243 16.395C42.312 16.2 40.452 14.025 38.481 12.924C37.0339 12.1478 35.4322 11.703 33.792 11.622C33.468 11.613 32.343 11.337 30.03 11.97C28.506 12.387 25.071 13.737 24.126 13.791C23.178 13.845 20.358 12.225 17.325 11.796C15.384 11.421 13.326 12.189 11.853 12.78C10.383 13.368 7.58702 15.042 5.63102 19.491C3.67502 23.937 4.69802 30.981 5.43002 33.171C6.16202 35.358 7.30502 38.943 9.24902 41.559C10.977 44.511 13.269 46.56 14.226 47.256C15.183 47.952 17.883 48.414 19.755 47.457C21.261 46.533 23.979 46.002 25.053 46.041C26.124 46.08 28.236 46.503 30.399 47.658C32.112 48.249 33.732 48.003 35.355 47.343C36.978 46.68 39.327 44.166 42.069 39.069C43.11 36.699 43.584 35.418 43.488 35.223Z" fill="white"/>
<path d="M33.546 0.024021C33.444 -0.089979 29.769 0.0690211 26.571 3.54002C23.373 7.00802 23.865 10.986 23.937 11.088C24.009 11.19 28.497 11.349 31.362 7.31402C34.227 3.27902 33.648 0.141021 33.546 0.024021ZM43.488 35.223C43.344 34.935 36.513 31.521 37.149 24.957C37.785 18.39 42.174 16.59 42.243 16.395C42.312 16.2 40.452 14.025 38.481 12.924C37.0339 12.1478 35.4322 11.703 33.792 11.622C33.468 11.613 32.343 11.337 30.03 11.97C28.506 12.387 25.071 13.737 24.126 13.791C23.178 13.845 20.358 12.225 17.325 11.796C15.384 11.421 13.326 12.189 11.853 12.78C10.383 13.368 7.58702 15.042 5.63102 19.491C3.67502 23.937 4.69802 30.981 5.43002 33.171C6.16202 35.358 7.30502 38.943 9.24902 41.559C10.977 44.511 13.269 46.56 14.226 47.256C15.183 47.952 17.883 48.414 19.755 47.457C21.261 46.533 23.979 46.002 25.053 46.041C26.124 46.08 28.236 46.503 30.399 47.658C32.112 48.249 33.732 48.003 35.355 47.343C36.978 46.68 39.327 44.166 42.069 39.069C43.11 36.699 43.584 35.418 43.488 35.223Z" fill="white"/>
</g>
<defs>
<clipPath id="clip0_36_54">
<rect width="48" height="48" fill="white"/>
</clipPath>
</defs>
</svg>
