<svg width="109" height="22" viewBox="0 0 109 22" fill="none" xmlns="http://www.w3.org/2000/svg">
<path d="M4.16797 22H0.798828C0.701172 22 0.652344 21.9512 0.652344 21.8535L0.710938 1.24316C0.710938 1.16504 0.75 1.12598 0.828125 1.12598H6.59961C8.43555 1.12598 9.88574 1.6875 10.9502 2.81055C12.0244 3.92383 12.5615 5.44238 12.5615 7.36621C12.5615 8.77246 12.2832 9.99805 11.7266 11.043C11.1602 12.0781 10.4277 12.8789 9.5293 13.4453C8.63086 14.0117 7.6543 14.2949 6.59961 14.2949H4.31445V21.8535C4.31445 21.9512 4.26562 22 4.16797 22ZM6.59961 4.68555L4.31445 4.71484V10.6621H6.59961C7.23438 10.6621 7.78613 10.3594 8.25488 9.75391C8.72363 9.13867 8.95801 8.34277 8.95801 7.36621C8.95801 6.58496 8.74805 5.94531 8.32812 5.44727C7.9082 4.93945 7.33203 4.68555 6.59961 4.68555ZM24.1777 22H14.4805C14.4023 22 14.3633 21.9512 14.3633 21.8535L14.3926 1.24316C14.3926 1.16504 14.4316 1.12598 14.5098 1.12598H24.1484C24.2266 1.12598 24.2656 1.1748 24.2656 1.27246V4.62695C24.2656 4.70508 24.2266 4.74414 24.1484 4.74414H17.9961V9.43164H24.1484C24.2266 9.43164 24.2656 9.4707 24.2656 9.54883L24.2949 12.9473C24.2949 13.0254 24.2559 13.0645 24.1777 13.0645H17.9961V18.3086H24.1777C24.2559 18.3086 24.2949 18.3574 24.2949 18.4551V21.8828C24.2949 21.9609 24.2559 22 24.1777 22ZM30.2275 22H27.2246C27.0684 22 26.9902 21.9316 26.9902 21.7949L26.9609 1.36035C26.9609 1.2041 27.0391 1.12598 27.1953 1.12598H29.9053L34.9736 12.9473L34.8271 1.36035C34.8271 1.2041 34.915 1.12598 35.0908 1.12598H38.0645C38.1816 1.12598 38.2402 1.2041 38.2402 1.36035L38.2695 21.8242C38.2695 21.9414 38.2207 22 38.123 22H35.4863L30.2861 10.9551L30.5059 21.7656C30.5059 21.9219 30.4131 22 30.2275 22ZM51.6436 22H40.4521C40.3545 22 40.3057 21.9512 40.3057 21.8535V18.4551C40.3057 18.416 40.3252 18.377 40.3643 18.3379L47.7764 8.17188C47.9131 7.98633 48.0254 7.75195 48.1133 7.46875C48.2109 7.17578 48.2598 6.92188 48.2598 6.70703C48.2598 6.12109 48.0498 5.58398 47.6299 5.0957C47.21 4.60742 46.6777 4.36328 46.0332 4.36328C45.418 4.36328 44.8955 4.59766 44.4658 5.06641C44.0361 5.53516 43.8213 6.13086 43.8213 6.85352V8.31836C43.8213 8.41602 43.7725 8.46484 43.6748 8.46484H40.3057C40.2275 8.46484 40.1885 8.41602 40.1885 8.31836V6.85352C40.1885 5.73047 40.4668 4.70996 41.0234 3.79199C41.5703 2.87402 42.2881 2.14648 43.1768 1.60938C44.0654 1.0625 45.0176 0.789062 46.0332 0.789062C47.1074 0.789062 48.0889 1.0625 48.9775 1.60938C49.8564 2.16602 50.5596 2.89355 51.0869 3.79199C51.624 4.69043 51.8926 5.66211 51.8926 6.70703C51.8926 7.36133 51.7754 8.03027 51.541 8.71387C51.3164 9.3877 51.0039 9.98828 50.6035 10.5156L44.9053 18.3379H51.6436C51.7314 18.3379 51.7754 18.377 51.7754 18.4551V21.8535C51.7754 21.9512 51.7314 22 51.6436 22ZM57.5762 22H54.207C54.1094 22 54.0605 21.9512 54.0605 21.8535L54.1191 1.24316C54.1191 1.16504 54.1582 1.12598 54.2363 1.12598H60.0078C61.8438 1.12598 63.2939 1.6875 64.3584 2.81055C65.4326 3.92383 65.9697 5.44238 65.9697 7.36621C65.9697 8.77246 65.6914 9.99805 65.1348 11.043C64.5684 12.0781 63.8359 12.8789 62.9375 13.4453C62.0391 14.0117 61.0625 14.2949 60.0078 14.2949H57.7227V21.8535C57.7227 21.9512 57.6738 22 57.5762 22ZM60.0078 4.68555L57.7227 4.71484V10.6621H60.0078C60.6426 10.6621 61.1943 10.3594 61.6631 9.75391C62.1318 9.13867 62.3662 8.34277 62.3662 7.36621C62.3662 6.58496 62.1562 5.94531 61.7363 5.44727C61.3164 4.93945 60.7402 4.68555 60.0078 4.68555ZM71.3164 22H67.918C67.8203 22 67.7715 21.9512 67.7715 21.8535L67.8008 1.24316C67.8008 1.16504 67.8398 1.12598 67.918 1.12598H71.2871C71.3652 1.12598 71.4043 1.16504 71.4043 1.24316L71.4336 21.8535C71.4336 21.9512 71.3945 22 71.3164 22ZM76.5166 22H73.1475C73.0791 22 73.0498 21.9512 73.0596 21.8535L76.4873 11.1455L73.1182 1.24316C73.0986 1.16504 73.1279 1.12598 73.2061 1.12598H76.5752C76.6729 1.12598 76.7314 1.16504 76.751 1.24316L78.7578 8.37695L80.7939 1.24316C80.8135 1.16504 80.877 1.12598 80.9844 1.12598H84.3096C84.3877 1.12598 84.417 1.16504 84.3975 1.24316L81.043 11.1162L84.4268 21.8535C84.4658 21.9512 84.4365 22 84.3389 22H80.9844C80.8965 22 80.833 21.9512 80.7939 21.8535L78.7578 14.1045L76.6924 21.8535C76.6826 21.9512 76.624 22 76.5166 22ZM96.0137 22H86.3164C86.2383 22 86.1992 21.9512 86.1992 21.8535L86.2285 1.24316C86.2285 1.16504 86.2676 1.12598 86.3457 1.12598H95.9844C96.0625 1.12598 96.1016 1.1748 96.1016 1.27246V4.62695C96.1016 4.70508 96.0625 4.74414 95.9844 4.74414H89.832V9.43164H95.9844C96.0625 9.43164 96.1016 9.4707 96.1016 9.54883L96.1309 12.9473C96.1309 13.0254 96.0918 13.0645 96.0137 13.0645H89.832V18.3086H96.0137C96.0918 18.3086 96.1309 18.3574 96.1309 18.4551V21.8828C96.1309 21.9609 96.0918 22 96.0137 22ZM108.611 22H98.9141C98.8359 22 98.7969 21.9512 98.7969 21.8535L98.8262 1.27246C98.8262 1.1748 98.875 1.12598 98.9727 1.12598H102.312C102.41 1.12598 102.459 1.1748 102.459 1.27246L102.43 18.3086H108.611C108.709 18.3086 108.758 18.3574 108.758 18.4551V21.8535C108.758 21.9512 108.709 22 108.611 22Z" fill="white"/>
</svg>
