<svg width="48" height="48" viewBox="0 0 48 48" fill="none" xmlns="http://www.w3.org/2000/svg">
<path d="M4.5 5.57729V42.421C4.50025 42.501 4.52409 42.5791 4.56853 42.6455C4.61298 42.7119 4.67605 42.7638 4.74984 42.7945C4.82363 42.8253 4.90485 42.8335 4.98332 42.8183C5.06179 42.803 5.13402 42.765 5.19094 42.7089L24.375 24.0001L5.19094 5.28948C5.13402 5.23336 5.06179 5.19529 4.98332 5.18005C4.90485 5.16481 4.82363 5.17308 4.74984 5.20382C4.67605 5.23456 4.61298 5.28639 4.56853 5.35283C4.52409 5.41927 4.50025 5.49736 4.5 5.57729Z" fill="white"/>
<path d="M32.4187 16.3125L8.36432 3.06004L8.34932 3.0516C7.93494 2.8266 7.54119 3.38722 7.88057 3.71347L26.7365 21.7435L32.4187 16.3125Z" fill="white"/>
<path d="M7.8824 44.2865C7.54115 44.6128 7.9349 45.1734 8.35115 44.9484L8.36615 44.94L32.4186 31.6875L26.7365 26.2546L7.8824 44.2865Z" fill="white"/>
<path d="M42.1293 21.6562L35.4121 17.9568L29.0962 23.9999L35.4121 30.0402L42.1293 26.3437C43.9565 25.334 43.9565 22.6659 42.1293 21.6562Z" fill="white"/>
</svg>
